<svg id="Capa_1" enable-background="new 0 0 512 512" height="512" viewBox="0 0 512 512" width="512" xmlns="http://www.w3.org/2000/svg"><g><path d="m418.51 302.04-27.803-138.984c-1.406-7.002-7.559-12.056-14.707-12.056h-120-120c-6.398 0-13.381 5.424-14.707 12.056l-27.803 138.984c-35.42 5.977-62.49 36.87-62.49 73.96 0 31.274 19.717 59.575 49.072 70.4h175.928 175.928c29.355-10.825 49.072-39.126 49.072-70.4 0-37.09-27.07-67.983-62.49-73.96z" fill="#474f54"/><path d="m481 376c0-37.09-27.07-67.983-62.49-73.96l-27.803-138.984c-1.406-7.002-7.559-12.056-14.707-12.056h-120v295.4h175.928c29.355-10.825 49.072-39.126 49.072-70.4z" fill="#32393f"/><path d="m302.655 307.665c-1.23-7.222-7.471-12.495-14.795-12.495h-31.86-31.86c-7.324 0-13.564 5.273-14.795 12.495-3.483 20.598-10.552 32.009-20.845 39.835l67.5 70.468 67.5-70.468c-10.292-7.826-17.362-19.237-20.845-39.835z" fill="#ffb3b3"/><path d="m302.655 307.665c-1.23-7.222-7.471-12.495-14.795-12.495h-31.86v122.798l67.5-70.468c-10.292-7.826-17.362-19.237-20.845-39.835z" fill="#f99"/><path d="m256 0c-78.779 0-142.659 68.564-133.826 151h133.826 134.169c.004-.031.022-.057.026-.088 8.755-81.249-54.83-150.912-134.195-150.912z" fill="#ffd396"/><path d="m390.194 150.912c8.756-81.249-54.829-150.912-134.194-150.912v151h134.169c.003-.031.022-.057.025-.088z" fill="#ffb64c"/><path d="m361.425 363.783c-14.515-4.332-28.022-9.016-37.925-16.284l-67.5 66.235-67.5-66.234c-9.902 7.267-23.41 11.951-37.925 16.284-39.902 11.923-89.575 27.747-89.575 133.216 0 8.291 6.709 15 15 15h180 180c8.291 0 15-6.709 15-15 0-105.469-49.673-121.293-89.575-133.217z" fill="#ffb64c"/><path d="m451 497c0-105.469-49.673-121.293-89.575-133.217-14.515-4.332-28.022-9.016-37.925-16.284l-67.5 66.235v98.266h180c8.291 0 15-6.709 15-15z" fill="#ff9100"/><path d="m365.644 405.019s-41.917-57.345-42.144-57.519l-67.5 40.468-67.5-40.468c-.227.174-42.144 57.519-42.144 57.519-2.212 3.311-3.003 7.368-2.227 11.265s3.076 7.339 6.387 9.536l13.96 9.302c16.523 11.008 36.478 15.121 56.309 11.133 13.301-2.651 25.356-8.716 35.215-17.52 9.858 8.804 21.914 14.868 35.215 17.52 19.83 3.988 39.785-.125 56.309-11.133l13.96-9.302c3.311-2.197 5.61-5.64 6.387-9.536s-.016-7.955-2.227-11.265z" fill="#f2f2fc"/><path d="m347.523 435.121 13.96-9.302c3.311-2.197 5.61-5.64 6.387-9.536s-.015-7.954-2.227-11.265c0 0-41.917-57.345-42.144-57.519l-67.499 40.469v40.767c9.858 8.804 21.914 14.868 35.215 17.52 19.83 3.987 39.785-.126 56.308-11.134z" fill="#e2d9fb"/><path d="m256 166h-105v60c0 57.891 47.109 105 105 105s105-47.109 105-105v-60z" fill="#fcc"/><path d="m361 226v-60h-105v165c57.891 0 105-47.109 105-105z" fill="#ffb3b3"/><path d="m421 121h-165-165c-16.569 0-30 13.431-30 30 0 16.567 13.431 30 30 30h165 165c16.569 0 30-13.433 30-30 0-16.569-13.431-30-30-30z" fill="#ffb64c"/><path d="m451 151c0-16.569-13.431-30-30-30h-165v60h165c16.569 0 30-13.433 30-30z" fill="#ff9100"/></g></svg>